# xmcd
#
# Track frame offsets:
#	150
#	10629
#	27188
#	39662
#	50008
#	60511
#	68833
#	79183
#	93567
#	107959
#	120341
#	133863
#	144477
#	156827
#	170574
#	181572
#	192037
#	203784
#	214671
#	225609
#	240318
#	248920
#	263778
#	272913
#	285342
#	298584
#	311953
#	324775
#
# Disc length: 4499 seconds
#
# Revision: 3
# Processed by: cddbd v1.5.2PL0 Copyright (c) Steve Scherf et al.
# Submitted via: EasyCDDAExtractor 10.0.2.1
#
DISCID=8a11911c
DTITLE=Jimmy Martin - 1954 - 1974 - CD4
DYEAR=1994
DGENRE=Bluegrass
TTITLE0=1965
TTITLE1=1965
TTITLE2=1965
TTITLE3=1965
TTITLE4=1967
TTITLE5=1966
TTITLE6=1967
TTITLE7=1967
TTITLE8=1966
TTITLE9=1966
TTITLE10=1966
TTITLE11=1966
TTITLE12=1966
TTITLE13=1966
TTITLE14=1966
TTITLE15=1967
TTITLE16=1967
TTITLE17=1967
TTITLE18=1967
TTITLE19=1967
TTITLE20=1967
TTITLE21=1968
TTITLE22=1967
TTITLE23=1967
TTITLE24=1968
TTITLE25=1968
TTITLE26=1968
TTITLE27=1968
EXTD=
EXTT0=
EXTT1=
EXTT2=
EXTT3=
EXTT4=
EXTT5=
EXTT6=
EXTT7=
EXTT8=
EXTT9=
EXTT10=
EXTT11=
EXTT12=
EXTT13=
EXTT14=
EXTT15=
EXTT16=
EXTT17=
EXTT18=
EXTT19=
EXTT20=
EXTT21=
EXTT22=
EXTT23=
EXTT24=
EXTT25=
EXTT26=
EXTT27=
PLAYORDER=
